<?xml version="1.0" encoding="UTF-8"?>
<svg xmlns="http://www.w3.org/2000/svg" xmlns:xlink="http://www.w3.org/1999/xlink" width="507.9pt" height="507.9pt" viewBox="0 0 507.9 507.9" version="1.1">
<defs>
<clipPath id="clip1">
  <path d="M 0 0 L 507.898438 0 L 507.898438 507.898438 L 0 507.898438 Z M 0 0 "/>
</clipPath>
</defs>
<g id="surface1">
<path style="fill-rule:evenodd;fill:rgb(10.594177%,9.812927%,9.423828%);fill-opacity:1;stroke-width:2;stroke-linecap:butt;stroke-linejoin:miter;stroke:rgb(0%,0%,0%);stroke-opacity:1;stroke-miterlimit:4;" d="M 2540 4843.648438 C 3640.078125 4843.648438 4532.1875 3951.539063 4532.1875 2851.460938 C 4532.1875 1751.382813 3640.078125 859.273438 2540 859.273438 C 1439.960938 859.273438 547.8125 1751.382813 547.8125 2851.460938 C 547.8125 3951.539063 1439.960938 4843.648438 2540 4843.648438 Z M 2540 4843.648438 " transform="matrix(0.1,0,0,-0.1,0,507.9)"/>
<path style="fill-rule:evenodd;fill:rgb(100%,100%,100%);fill-opacity:1;stroke-width:2;stroke-linecap:butt;stroke-linejoin:miter;stroke:rgb(0%,0%,0%);stroke-opacity:1;stroke-miterlimit:4;" d="M 2540 4584.390625 C 3496.914063 4584.390625 4272.96875 3808.375 4272.96875 2851.460938 C 4272.96875 1894.546875 3496.914063 1118.492188 2540 1118.492188 C 1583.085938 1118.492188 807.03125 1894.546875 807.03125 2851.460938 C 807.03125 3808.375 1583.085938 4584.390625 2540 4584.390625 Z M 2540 4684.234375 C 3552.070313 4684.234375 4372.773438 3863.492188 4372.773438 2851.460938 C 4372.773438 1839.390625 3552.070313 1018.6875 2540 1018.6875 C 1527.96875 1018.6875 707.226563 1839.390625 707.226563 2851.460938 C 707.226563 3863.492188 1527.96875 4684.234375 2540 4684.234375 Z M 2540 4684.234375 " transform="matrix(0.1,0,0,-0.1,0,507.9)"/>
<path style="fill-rule:evenodd;fill:rgb(100%,100%,100%);fill-opacity:1;stroke-width:2;stroke-linecap:butt;stroke-linejoin:miter;stroke:rgb(0%,0%,0%);stroke-opacity:1;stroke-miterlimit:4;" d="M 1823.007813 4121.460938 L 2532.539063 3727.28125 L 3237.1875 4121.460938 L 3439.21875 3278.921875 L 2941.523438 3505.5625 L 3452.617188 1583.6875 L 2842.617188 1583.765625 L 2542.421875 3545.015625 L 2241.835938 1583.882813 L 1630.898438 1583.960938 L 2158.046875 3521.96875 L 1627.382813 3280.601563 Z M 1823.007813 4121.460938 " transform="matrix(0.1,0,0,-0.1,0,507.9)"/>
<path style=" stroke:none;fill-rule:evenodd;fill:rgb(10.594177%,9.812927%,9.423828%);fill-opacity:1;" d="M 130.640625 483.519531 L 121.054688 483.519531 L 117.25 473.613281 L 99.820313 473.613281 L 96.226563 483.519531 L 86.886719 483.519531 L 103.871094 439.921875 L 113.179688 439.921875 Z M 114.425781 466.273438 L 108.417969 450.09375 L 102.53125 466.273438 Z M 135.277344 439.921875 L 151.367188 439.921875 C 154.992188 439.921875 157.75 440.195313 159.660156 440.753906 C 162.21875 441.503906 164.410156 442.84375 166.230469 444.773438 C 168.054688 446.691406 169.445313 449.046875 170.398438 451.832031 C 171.34375 454.621094 171.820313 458.050781 171.820313 462.140625 C 171.820313 465.726563 171.375 468.820313 170.484375 471.421875 C 169.394531 474.589844 167.84375 477.152344 165.8125 479.113281 C 164.292969 480.605469 162.230469 481.761719 159.632813 482.597656 C 157.691406 483.214844 155.09375 483.519531 151.835938 483.519531 L 135.277344 483.519531 Z M 144.078125 447.300781 L 144.078125 476.171875 L 150.648438 476.171875 C 153.105469 476.171875 154.878906 476.039063 155.976563 475.753906 C 157.398438 475.398438 158.585938 474.800781 159.53125 473.953125 C 160.472656 473.09375 161.234375 471.683594 161.832031 469.734375 C 162.421875 467.785156 162.726563 465.113281 162.726563 461.746094 C 162.726563 458.378906 162.421875 455.796875 161.832031 453.988281 C 161.234375 452.183594 160.402344 450.773438 159.335938 449.769531 C 158.261719 448.753906 156.898438 448.070313 155.257813 447.71875 C 154.027344 447.433594 151.621094 447.300781 148.027344 447.300781 Z M 190.410156 483.519531 L 174.828125 439.921875 L 184.378906 439.921875 L 195.40625 472.191406 L 206.082031 439.921875 L 215.421875 439.921875 L 199.808594 483.519531 Z M 218.132813 461.992188 C 218.132813 457.542969 218.792969 453.820313 220.121094 450.800781 C 221.117188 448.589844 222.46875 446.589844 224.183594 444.828125 C 225.898438 443.066406 227.777344 441.757813 229.816406 440.902344 C 232.535156 439.746094 235.664063 439.179688 239.21875 439.179688 C 245.644531 439.179688 250.78125 441.167969 254.636719 445.160156 C 258.496094 449.136719 260.421875 454.679688 260.421875 461.777344 C 260.421875 468.820313 258.503906 474.328125 254.675781 478.300781 C 250.851563 482.273438 245.734375 484.261719 239.339844 484.261719 C 232.851563 484.261719 227.695313 482.28125 223.867188 478.335938 C 220.042969 474.378906 218.132813 468.921875 218.132813 461.992188 Z M 227.199219 461.695313 C 227.199219 466.628906 228.34375 470.378906 230.621094 472.921875 C 232.902344 475.46875 235.796875 476.738281 239.308594 476.738281 C 242.808594 476.738281 245.695313 475.480469 247.945313 472.941406 C 250.1875 470.417969 251.316406 466.628906 251.316406 461.578125 C 251.316406 456.582031 250.222656 452.855469 248.039063 450.386719 C 245.847656 447.929688 242.933594 446.703125 239.308594 446.703125 C 235.671875 446.703125 232.75 447.953125 230.527344 450.4375 C 228.3125 452.925781 227.199219 456.671875 227.199219 461.695313 Z M 295.1875 467.492188 L 303.714844 470.191406 C 302.40625 474.957031 300.234375 478.484375 297.1875 480.800781 C 294.152344 483.101563 290.285156 484.261719 285.609375 484.261719 C 279.820313 484.261719 275.058594 482.28125 271.335938 478.335938 C 267.609375 474.378906 265.738281 468.964844 265.738281 462.109375 C 265.738281 454.855469 267.621094 449.21875 271.363281 445.203125 C 275.109375 441.1875 280.035156 439.179688 286.144531 439.179688 C 291.472656 439.179688 295.808594 440.753906 299.136719 443.910156 C 301.128906 445.769531 302.609375 448.453125 303.605469 451.9375 L 294.886719 454.019531 C 294.375 451.757813 293.300781 449.96875 291.65625 448.660156 C 290.023438 447.351563 288.035156 446.703125 285.699219 446.703125 C 282.46875 446.703125 279.839844 447.859375 277.828125 450.183594 C 275.820313 452.496094 274.816406 456.253906 274.816406 461.453125 C 274.816406 466.964844 275.800781 470.894531 277.789063 473.226563 C 279.769531 475.570313 282.347656 476.738281 285.515625 476.738281 C 287.859375 476.738281 289.867188 475.996094 291.554688 474.507813 C 293.238281 473.023438 294.449219 470.679688 295.1875 467.492188 Z M 350.597656 483.519531 L 341.011719 483.519531 L 337.207031 473.613281 L 319.777344 473.613281 L 316.183594 483.519531 L 306.84375 483.519531 L 323.828125 439.921875 L 333.136719 439.921875 Z M 334.382813 466.273438 L 328.375 450.09375 L 322.488281 466.273438 Z M 360.558594 483.519531 L 360.558594 447.300781 L 347.625 447.300781 L 347.625 439.921875 L 382.269531 439.921875 L 382.269531 447.300781 L 369.367188 447.300781 L 369.367188 483.519531 Z M 387.953125 483.519531 L 387.953125 439.921875 L 420.273438 439.921875 L 420.273438 447.300781 L 396.753906 447.300781 L 396.753906 456.964844 L 418.640625 456.964844 L 418.640625 464.304688 L 396.753906 464.304688 L 396.753906 476.171875 L 421.105469 476.171875 L 421.105469 483.519531 Z M 387.953125 483.519531 "/>
<g clip-path="url(#clip1)" clip-rule="nonzero">
<path style="fill:none;stroke-width:2;stroke-linecap:butt;stroke-linejoin:miter;stroke:rgb(0%,0%,0%);stroke-opacity:1;stroke-miterlimit:4;" d="M 1.210938 1.226563 L 5078.789063 1.226563 L 5078.789063 5078.804688 L 1.210938 5078.804688 Z M 1.210938 1.226563 " transform="matrix(0.1,0,0,-0.1,0,507.9)"/>
</g>
</g>
</svg>
